<svg xmlns="http://www.w3.org/2000/svg" xmlns:xlink="http://www.w3.org/1999/xlink" viewBox="0 0 2050.66 1241.28"><defs><linearGradient id="a" y1="71.81" x2="165.84" y2="71.81" gradientUnits="userSpaceOnUse"><stop offset="0" stop-color="#033"/><stop offset="0.39" stop-color="#052f2f"/><stop offset="0.82" stop-color="#122222"/><stop offset="1" stop-color="#1a1a1a"/></linearGradient><linearGradient id="b" x1="269.26" y1="71.81" x2="435.1" y2="71.81" xlink:href="#a"/><linearGradient id="c" x1="538.52" y1="71.81" x2="704.36" y2="71.81" xlink:href="#a"/><linearGradient id="d" x1="807.78" y1="71.81" x2="973.62" y2="71.81" xlink:href="#a"/><linearGradient id="e" x1="1077.04" y1="71.81" x2="1242.88" y2="71.81" xlink:href="#a"/><linearGradient id="f" x1="1346.3" y1="71.81" x2="1512.14" y2="71.81" xlink:href="#a"/><linearGradient id="g" x1="1615.56" y1="71.81" x2="1781.4" y2="71.81" xlink:href="#a"/><linearGradient id="h" x1="1884.81" y1="71.81" x2="2050.66" y2="71.81" xlink:href="#a"/><linearGradient id="i" x1="134.63" y1="150.22" x2="300.47" y2="150.22" xlink:href="#a"/><linearGradient id="j" x1="403.89" y1="150.22" x2="569.73" y2="150.22" xlink:href="#a"/><linearGradient id="k" x1="673.15" y1="150.22" x2="838.99" y2="150.22" xlink:href="#a"/><linearGradient id="l" x1="942.41" y1="150.22" x2="1108.25" y2="150.22" xlink:href="#a"/><linearGradient id="m" x1="1211.67" y1="150.22" x2="1377.51" y2="150.22" xlink:href="#a"/><linearGradient id="n" x1="1480.93" y1="150.22" x2="1646.77" y2="150.22" xlink:href="#a"/><linearGradient id="o" x1="1750.19" y1="150.22" x2="1916.03" y2="150.22" xlink:href="#a"/><linearGradient id="p" y1="228.62" x2="165.84" y2="228.62" xlink:href="#a"/><linearGradient id="q" x1="269.26" y1="228.62" x2="435.1" y2="228.62" xlink:href="#a"/><linearGradient id="r" x1="538.52" y1="228.62" x2="704.36" y2="228.62" xlink:href="#a"/><linearGradient id="s" x1="807.78" y1="228.62" x2="973.62" y2="228.62" xlink:href="#a"/><linearGradient id="t" x1="1077.04" y1="228.62" x2="1242.88" y2="228.62" xlink:href="#a"/><linearGradient id="u" x1="1346.3" y1="228.62" x2="1512.14" y2="228.62" xlink:href="#a"/><linearGradient id="v" x1="1615.56" y1="228.62" x2="1781.4" y2="228.62" xlink:href="#a"/><linearGradient id="w" x1="1884.81" y1="228.62" x2="2050.66" y2="228.62" xlink:href="#a"/><linearGradient id="x" x1="134.63" y1="307.02" x2="300.47" y2="307.02" xlink:href="#a"/><linearGradient id="y" x1="403.89" y1="307.02" x2="569.73" y2="307.02" xlink:href="#a"/><linearGradient id="z" x1="673.15" y1="307.02" x2="838.99" y2="307.02" xlink:href="#a"/><linearGradient id="aa" x1="942.41" y1="307.02" x2="1108.25" y2="307.02" xlink:href="#a"/><linearGradient id="ab" x1="1211.67" y1="307.02" x2="1377.51" y2="307.02" xlink:href="#a"/><linearGradient id="ac" x1="1522.39" y1="378.84" x2="1605.31" y2="235.21" xlink:href="#a"/><linearGradient id="ad" x1="1750.19" y1="307.02" x2="1916.03" y2="307.02" xlink:href="#a"/><linearGradient id="ae" y1="385.43" x2="165.84" y2="385.43" xlink:href="#a"/><linearGradient id="af" x1="310.72" y1="457.24" x2="393.64" y2="313.62" xlink:href="#a"/><linearGradient id="ag" x1="579.98" y1="457.24" x2="662.9" y2="313.62" xlink:href="#a"/><linearGradient id="ah" x1="807.78" y1="385.43" x2="973.62" y2="385.43" xlink:href="#a"/><linearGradient id="ai" x1="1077.04" y1="385.43" x2="1242.88" y2="385.43" xlink:href="#a"/><linearGradient id="aj" x1="1346.3" y1="385.43" x2="1512.14" y2="385.43" xlink:href="#a"/><linearGradient id="ak" x1="1615.56" y1="385.43" x2="1781.4" y2="385.43" xlink:href="#a"/><linearGradient id="al" x1="1884.81" y1="385.43" x2="2050.66" y2="385.43" xlink:href="#a"/><linearGradient id="am" x1="134.63" y1="463.83" x2="300.47" y2="463.83" xlink:href="#a"/><linearGradient id="an" x1="403.89" y1="463.83" x2="569.73" y2="463.83" xlink:href="#a"/><linearGradient id="ao" x1="673.15" y1="463.83" x2="838.99" y2="463.83" xlink:href="#a"/><linearGradient id="ap" x1="942.41" y1="463.83" x2="1108.25" y2="463.83" xlink:href="#a"/><linearGradient id="aq" x1="1211.67" y1="463.83" x2="1377.51" y2="463.83" xlink:href="#a"/><linearGradient id="ar" x1="1480.93" y1="463.83" x2="1646.77" y2="463.83" xlink:href="#a"/><linearGradient id="as" x1="1750.19" y1="463.83" x2="1916.03" y2="463.83" xlink:href="#a"/><linearGradient id="at" y1="542.24" x2="165.84" y2="542.24" xlink:href="#a"/><linearGradient id="au" x1="269.26" y1="542.24" x2="435.1" y2="542.24" xlink:href="#a"/><linearGradient id="av" x1="538.52" y1="542.24" x2="704.36" y2="542.24" xlink:href="#a"/><linearGradient id="aw" x1="807.78" y1="542.24" x2="973.62" y2="542.24" xlink:href="#a"/><linearGradient id="ax" x1="1077.04" y1="542.24" x2="1242.88" y2="542.24" xlink:href="#a"/><linearGradient id="ay" x1="1346.3" y1="542.24" x2="1512.14" y2="542.24" xlink:href="#a"/><linearGradient id="az" x1="1615.56" y1="542.24" x2="1781.4" y2="542.24" xlink:href="#a"/><linearGradient id="ba" x1="1884.81" y1="542.24" x2="2050.66" y2="542.24" xlink:href="#a"/><linearGradient id="bb" x1="134.63" y1="620.64" x2="300.47" y2="620.64" xlink:href="#a"/><linearGradient id="bc" x1="403.89" y1="620.64" x2="569.73" y2="620.64" xlink:href="#a"/><linearGradient id="bd" x1="673.15" y1="620.64" x2="838.99" y2="620.64" xlink:href="#a"/><linearGradient id="be" x1="983.87" y1="692.45" x2="1066.79" y2="548.83" xlink:href="#a"/><linearGradient id="bf" x1="1253.13" y1="692.45" x2="1336.05" y2="548.83" xlink:href="#a"/><linearGradient id="bg" x1="1522.39" y1="692.45" x2="1605.31" y2="548.83" xlink:href="#a"/><linearGradient id="bh" x1="1750.19" y1="620.64" x2="1916.03" y2="620.64" xlink:href="#a"/><linearGradient id="bi" y1="699.05" x2="165.84" y2="699.05" xlink:href="#a"/><linearGradient id="bj" x1="269.26" y1="699.05" x2="435.1" y2="699.05" xlink:href="#a"/><linearGradient id="bk" x1="538.52" y1="699.05" x2="704.36" y2="699.05" xlink:href="#a"/><linearGradient id="bl" x1="807.78" y1="699.05" x2="973.62" y2="699.05" xlink:href="#a"/><linearGradient id="bm" x1="1077.04" y1="699.05" x2="1242.88" y2="699.05" xlink:href="#a"/><linearGradient id="bn" x1="1346.3" y1="699.05" x2="1512.14" y2="699.05" xlink:href="#a"/><linearGradient id="bo" x1="1615.56" y1="699.05" x2="1781.4" y2="699.05" xlink:href="#a"/><linearGradient id="bp" x1="1884.81" y1="699.05" x2="2050.66" y2="699.05" xlink:href="#a"/><linearGradient id="bq" x1="134.63" y1="777.45" x2="300.47" y2="777.45" xlink:href="#a"/><linearGradient id="br" x1="403.89" y1="777.45" x2="569.73" y2="777.45" xlink:href="#a"/><linearGradient id="bs" x1="673.15" y1="777.45" x2="838.99" y2="777.45" xlink:href="#a"/><linearGradient id="bt" x1="942.41" y1="777.45" x2="1108.25" y2="777.45" xlink:href="#a"/><linearGradient id="bu" x1="1211.67" y1="777.45" x2="1377.51" y2="777.45" xlink:href="#a"/><linearGradient id="bv" x1="1480.93" y1="777.45" x2="1646.77" y2="777.45" xlink:href="#a"/><linearGradient id="bw" x1="1750.19" y1="777.45" x2="1916.03" y2="777.45" xlink:href="#a"/><linearGradient id="bx" y1="855.85" x2="165.84" y2="855.85" xlink:href="#a"/><linearGradient id="by" x1="269.26" y1="855.85" x2="435.1" y2="855.85" xlink:href="#a"/><linearGradient id="bz" x1="579.98" y1="927.67" x2="662.9" y2="784.04" xlink:href="#a"/><linearGradient id="ca" x1="807.78" y1="855.85" x2="973.62" y2="855.85" xlink:href="#a"/><linearGradient id="cb" x1="1077.04" y1="855.85" x2="1242.88" y2="855.85" xlink:href="#a"/><linearGradient id="cc" x1="1346.3" y1="855.85" x2="1512.14" y2="855.85" xlink:href="#a"/><linearGradient id="cd" x1="1615.56" y1="855.85" x2="1781.4" y2="855.85" xlink:href="#a"/><linearGradient id="ce" x1="1884.81" y1="855.85" x2="2050.66" y2="855.85" xlink:href="#a"/><linearGradient id="cf" x1="134.63" y1="934.26" x2="300.47" y2="934.26" xlink:href="#a"/><linearGradient id="cg" x1="403.89" y1="934.26" x2="569.73" y2="934.26" xlink:href="#a"/><linearGradient id="ch" x1="714.61" y1="1006.07" x2="797.53" y2="862.45" xlink:href="#a"/><linearGradient id="ci" x1="942.41" y1="934.26" x2="1108.25" y2="934.26" xlink:href="#a"/><linearGradient id="cj" x1="1211.67" y1="934.26" x2="1377.51" y2="934.26" xlink:href="#a"/><linearGradient id="ck" x1="1480.93" y1="934.26" x2="1646.77" y2="934.26" xlink:href="#a"/><linearGradient id="cl" x1="1750.19" y1="934.26" x2="1916.03" y2="934.26" xlink:href="#a"/><linearGradient id="cm" y1="1012.66" x2="165.84" y2="1012.66" xlink:href="#a"/><linearGradient id="cn" x1="269.26" y1="1012.66" x2="435.1" y2="1012.66" xlink:href="#a"/><linearGradient id="co" x1="538.52" y1="1012.66" x2="704.36" y2="1012.66" xlink:href="#a"/><linearGradient id="cp" x1="807.78" y1="1012.66" x2="973.62" y2="1012.66" xlink:href="#a"/><linearGradient id="cq" x1="1077.04" y1="1012.66" x2="1242.88" y2="1012.66" xlink:href="#a"/><linearGradient id="cr" x1="1346.3" y1="1012.66" x2="1512.14" y2="1012.66" xlink:href="#a"/><linearGradient id="cs" x1="1615.56" y1="1012.66" x2="1781.4" y2="1012.66" xlink:href="#a"/><linearGradient id="ct" x1="1884.81" y1="1012.66" x2="2050.66" y2="1012.66" xlink:href="#a"/><linearGradient id="cu" x1="176.09" y1="1162.88" x2="259.01" y2="1019.26" xlink:href="#a"/><linearGradient id="cv" x1="403.89" y1="1091.07" x2="569.73" y2="1091.07" xlink:href="#a"/><linearGradient id="cw" x1="673.15" y1="1091.07" x2="838.99" y2="1091.07" xlink:href="#a"/><linearGradient id="cx" x1="942.41" y1="1091.07" x2="1108.25" y2="1091.07" xlink:href="#a"/><linearGradient id="cy" x1="1253.13" y1="1162.88" x2="1336.05" y2="1019.26" xlink:href="#a"/><linearGradient id="cz" x1="1480.93" y1="1091.07" x2="1646.77" y2="1091.07" xlink:href="#a"/><linearGradient id="da" x1="1791.65" y1="1162.88" x2="1874.57" y2="1019.26" xlink:href="#a"/><linearGradient id="db" y1="1169.47" x2="165.84" y2="1169.47" xlink:href="#a"/><linearGradient id="dc" x1="269.26" y1="1169.47" x2="435.1" y2="1169.47" xlink:href="#a"/><linearGradient id="dd" x1="538.52" y1="1169.47" x2="704.36" y2="1169.47" xlink:href="#a"/><linearGradient id="de" x1="807.78" y1="1169.47" x2="973.62" y2="1169.47" xlink:href="#a"/><linearGradient id="df" x1="1077.04" y1="1169.47" x2="1242.88" y2="1169.47" xlink:href="#a"/><linearGradient id="dg" x1="1346.3" y1="1169.47" x2="1512.14" y2="1169.47" xlink:href="#a"/><linearGradient id="dh" x1="1615.56" y1="1169.47" x2="1781.4" y2="1169.47" xlink:href="#a"/><linearGradient id="di" x1="1884.81" y1="1169.47" x2="2050.66" y2="1169.47" xlink:href="#a"/></defs><polygon points="124.38 0 41.46 0 0 71.81 41.46 143.62 124.38 143.62 165.84 71.81 124.38 0" style="fill:url(#a)"/><polygon points="393.64 0 310.72 0 269.26 71.81 310.72 143.62 393.64 143.62 435.1 71.81 393.64 0" style="fill:url(#b)"/><polygon points="662.9 0 579.98 0 538.52 71.81 579.98 143.62 662.9 143.62 704.36 71.81 662.9 0" style="fill:url(#c)"/><polygon points="932.16 0 849.24 0 807.78 71.81 849.24 143.62 932.16 143.62 973.62 71.81 932.16 0" style="fill:url(#d)"/><polygon points="1201.42 0 1118.5 0 1077.04 71.81 1118.5 143.62 1201.42 143.62 1242.88 71.81 1201.42 0" style="fill:url(#e)"/><polygon points="1470.68 0 1387.76 0 1346.3 71.81 1387.76 143.62 1470.68 143.62 1512.14 71.81 1470.68 0" style="fill:url(#f)"/><polygon points="1739.94 0 1657.02 0 1615.56 71.81 1657.02 143.62 1739.94 143.62 1781.4 71.81 1739.94 0" style="fill:url(#g)"/><polygon points="2009.2 0 1926.28 0 1884.82 71.81 1926.28 143.62 2009.2 143.62 2050.66 71.81 2009.2 0" style="fill:url(#h)"/><polygon points="259.01 78.4 176.09 78.4 134.63 150.22 176.09 222.03 259.01 222.03 300.47 150.22 259.01 78.4" style="fill:url(#i)"/><polygon points="528.27 78.4 445.35 78.4 403.89 150.22 445.35 222.03 528.27 222.03 569.73 150.22 528.27 78.4" style="fill:url(#j)"/><polygon points="797.53 78.4 714.61 78.4 673.15 150.22 714.61 222.03 797.53 222.03 838.99 150.22 797.53 78.4" style="fill:url(#k)"/><polygon points="1066.79 78.4 983.87 78.4 942.41 150.22 983.87 222.03 1066.79 222.03 1108.25 150.22 1066.79 78.4" style="fill:url(#l)"/><polygon points="1336.05 78.4 1253.13 78.4 1211.67 150.22 1253.13 222.03 1336.05 222.03 1377.51 150.22 1336.05 78.4" style="fill:url(#m)"/><polygon points="1605.31 78.4 1522.39 78.4 1480.93 150.22 1522.39 222.03 1605.31 222.03 1646.77 150.22 1605.31 78.4" style="fill:url(#n)"/><polygon points="1874.57 78.4 1791.65 78.4 1750.18 150.22 1791.65 222.03 1874.57 222.03 1916.03 150.22 1874.57 78.4" style="fill:url(#o)"/><polygon points="124.38 156.81 41.46 156.81 0 228.62 41.46 300.43 124.38 300.43 165.84 228.62 124.38 156.81" style="fill:url(#p)"/><polygon points="393.64 156.81 310.72 156.81 269.26 228.62 310.72 300.43 393.64 300.43 435.1 228.62 393.64 156.81" style="fill:url(#q)"/><polygon points="662.9 156.81 579.98 156.81 538.52 228.62 579.98 300.43 662.9 300.43 704.36 228.62 662.9 156.81" style="fill:url(#r)"/><polygon points="932.16 156.81 849.24 156.81 807.78 228.62 849.24 300.43 932.16 300.43 973.62 228.62 932.16 156.81" style="fill:url(#s)"/><polygon points="1201.42 156.81 1118.5 156.81 1077.04 228.62 1118.5 300.43 1201.42 300.43 1242.88 228.62 1201.42 156.81" style="fill:url(#t)"/><polygon points="1470.68 156.81 1387.76 156.81 1346.3 228.62 1387.76 300.43 1470.68 300.43 1512.14 228.62 1470.68 156.81" style="fill:url(#u)"/><polygon points="1739.94 156.81 1657.02 156.81 1615.56 228.62 1657.02 300.43 1739.94 300.43 1781.4 228.62 1739.94 156.81" style="fill:url(#v)"/><polygon points="2009.2 156.81 1926.28 156.81 1884.82 228.62 1926.28 300.43 2009.2 300.43 2050.66 228.62 2009.2 156.81" style="fill:url(#w)"/><polygon points="259.01 235.21 176.09 235.21 134.63 307.02 176.09 378.84 259.01 378.84 300.47 307.02 259.01 235.21" style="fill:url(#x)"/><polygon points="528.27 235.21 445.35 235.21 403.89 307.02 445.35 378.84 528.27 378.84 569.73 307.02 528.27 235.21" style="fill:url(#y)"/><polygon points="797.53 235.21 714.61 235.21 673.15 307.02 714.61 378.84 797.53 378.84 838.99 307.02 797.53 235.21" style="fill:url(#z)"/><polygon points="1066.79 235.21 983.87 235.21 942.41 307.02 983.87 378.84 1066.79 378.84 1108.25 307.02 1066.79 235.21" style="fill:url(#aa)"/><polygon points="1336.05 235.21 1253.13 235.21 1211.67 307.02 1253.13 378.84 1336.05 378.84 1377.51 307.02 1336.05 235.21" style="fill:url(#ab)"/><polygon points="1605.31 235.21 1522.39 235.21 1480.93 307.02 1522.39 378.84 1605.31 378.84 1646.77 307.02 1605.31 235.21" style="fill:url(#ac)"/><polygon points="1874.57 235.21 1791.65 235.21 1750.18 307.02 1791.65 378.84 1874.57 378.84 1916.03 307.02 1874.57 235.21" style="fill:url(#ad)"/><polygon points="124.38 313.62 41.46 313.62 0 385.43 41.46 457.24 124.38 457.24 165.84 385.43 124.38 313.62" style="fill:url(#ae)"/><polygon points="393.64 313.62 310.72 313.62 269.26 385.43 310.72 457.24 393.64 457.24 435.1 385.43 393.64 313.62" style="fill:url(#af)"/><polygon points="662.9 313.62 579.98 313.62 538.52 385.43 579.98 457.24 662.9 457.24 704.36 385.43 662.9 313.62" style="fill:url(#ag)"/><polygon points="932.16 313.62 849.24 313.62 807.78 385.43 849.24 457.24 932.16 457.24 973.62 385.43 932.16 313.62" style="fill:url(#ah)"/><polygon points="1201.42 313.62 1118.5 313.62 1077.04 385.43 1118.5 457.24 1201.42 457.24 1242.88 385.43 1201.42 313.62" style="fill:url(#ai)"/><polygon points="1470.68 313.62 1387.76 313.62 1346.3 385.43 1387.76 457.24 1470.68 457.24 1512.14 385.43 1470.68 313.62" style="fill:url(#aj)"/><polygon points="1739.94 313.62 1657.02 313.62 1615.56 385.43 1657.02 457.24 1739.94 457.24 1781.4 385.43 1739.94 313.62" style="fill:url(#ak)"/><polygon points="2009.2 313.62 1926.28 313.62 1884.82 385.43 1926.28 457.24 2009.2 457.24 2050.66 385.43 2009.2 313.62" style="fill:url(#al)"/><polygon points="259.01 392.02 176.09 392.02 134.63 463.83 176.09 535.64 259.01 535.64 300.47 463.83 259.01 392.02" style="fill:url(#am)"/><polygon points="528.27 392.02 445.35 392.02 403.89 463.83 445.35 535.64 528.27 535.64 569.73 463.83 528.27 392.02" style="fill:url(#an)"/><polygon points="797.53 392.02 714.61 392.02 673.15 463.83 714.61 535.64 797.53 535.64 838.99 463.83 797.53 392.02" style="fill:url(#ao)"/><polygon points="1066.79 392.02 983.87 392.02 942.41 463.83 983.87 535.64 1066.79 535.64 1108.25 463.83 1066.79 392.02" style="fill:url(#ap)"/><polygon points="1336.05 392.02 1253.13 392.02 1211.67 463.83 1253.13 535.64 1336.05 535.64 1377.51 463.83 1336.05 392.02" style="fill:url(#aq)"/><polygon points="1605.31 392.02 1522.39 392.02 1480.93 463.83 1522.39 535.64 1605.31 535.64 1646.77 463.83 1605.31 392.02" style="fill:url(#ar)"/><polygon points="1874.57 392.02 1791.65 392.02 1750.18 463.83 1791.65 535.64 1874.57 535.64 1916.03 463.83 1874.57 392.02" style="fill:url(#as)"/><polygon points="124.38 470.43 41.46 470.43 0 542.24 41.46 614.05 124.38 614.05 165.84 542.24 124.38 470.43" style="fill:url(#at)"/><polygon points="393.64 470.43 310.72 470.43 269.26 542.24 310.72 614.05 393.64 614.05 435.1 542.24 393.64 470.43" style="fill:url(#au)"/><polygon points="662.9 470.43 579.98 470.43 538.52 542.24 579.98 614.05 662.9 614.05 704.36 542.24 662.9 470.43" style="fill:url(#av)"/><polygon points="932.16 470.43 849.24 470.43 807.78 542.24 849.24 614.05 932.16 614.05 973.62 542.24 932.16 470.43" style="fill:url(#aw)"/><polygon points="1201.42 470.43 1118.5 470.43 1077.04 542.24 1118.5 614.05 1201.42 614.05 1242.88 542.24 1201.42 470.43" style="fill:url(#ax)"/><polygon points="1470.68 470.43 1387.76 470.43 1346.3 542.24 1387.76 614.05 1470.68 614.05 1512.14 542.24 1470.68 470.43" style="fill:url(#ay)"/><polygon points="1739.94 470.43 1657.02 470.43 1615.56 542.24 1657.02 614.05 1739.94 614.05 1781.4 542.24 1739.94 470.43" style="fill:url(#az)"/><polygon points="2009.2 470.43 1926.28 470.43 1884.82 542.24 1926.28 614.05 2009.2 614.05 2050.66 542.24 2009.2 470.43" style="fill:url(#ba)"/><polygon points="259.01 548.83 176.09 548.83 134.63 620.64 176.09 692.45 259.01 692.45 300.47 620.64 259.01 548.83" style="fill:url(#bb)"/><polygon points="528.27 548.83 445.35 548.83 403.89 620.64 445.35 692.45 528.27 692.45 569.73 620.64 528.27 548.83" style="fill:url(#bc)"/><polygon points="797.53 548.83 714.61 548.83 673.15 620.64 714.61 692.45 797.53 692.45 838.99 620.64 797.53 548.83" style="fill:url(#bd)"/><polygon points="1066.79 548.83 983.87 548.83 942.41 620.64 983.87 692.45 1066.79 692.45 1108.25 620.64 1066.79 548.83" style="fill:url(#be)"/><polygon points="1336.05 548.83 1253.13 548.83 1211.67 620.64 1253.13 692.45 1336.05 692.45 1377.51 620.64 1336.05 548.83" style="fill:url(#bf)"/><polygon points="1605.31 548.83 1522.39 548.83 1480.93 620.64 1522.39 692.45 1605.31 692.45 1646.77 620.64 1605.31 548.83" style="fill:url(#bg)"/><polygon points="1874.57 548.83 1791.65 548.83 1750.18 620.64 1791.65 692.45 1874.57 692.45 1916.03 620.64 1874.57 548.83" style="fill:url(#bh)"/><polygon points="124.38 627.23 41.46 627.23 0 699.05 41.46 770.86 124.38 770.86 165.84 699.05 124.38 627.23" style="fill:url(#bi)"/><polygon points="393.64 627.23 310.72 627.23 269.26 699.05 310.72 770.86 393.64 770.86 435.1 699.05 393.64 627.23" style="fill:url(#bj)"/><polygon points="662.9 627.23 579.98 627.23 538.52 699.05 579.98 770.86 662.9 770.86 704.36 699.05 662.9 627.23" style="fill:url(#bk)"/><polygon points="932.16 627.23 849.24 627.23 807.78 699.05 849.24 770.86 932.16 770.86 973.62 699.05 932.16 627.23" style="fill:url(#bl)"/><polygon points="1201.42 627.23 1118.5 627.23 1077.04 699.05 1118.5 770.86 1201.42 770.86 1242.88 699.05 1201.42 627.23" style="fill:url(#bm)"/><polygon points="1470.68 627.23 1387.76 627.23 1346.3 699.05 1387.76 770.86 1470.68 770.86 1512.14 699.05 1470.68 627.23" style="fill:url(#bn)"/><polygon points="1739.94 627.23 1657.02 627.23 1615.56 699.05 1657.02 770.86 1739.94 770.86 1781.4 699.05 1739.94 627.23" style="fill:url(#bo)"/><polygon points="2009.2 627.23 1926.28 627.23 1884.82 699.05 1926.28 770.86 2009.2 770.86 2050.66 699.05 2009.2 627.23" style="fill:url(#bp)"/><polygon points="259.01 705.64 176.09 705.64 134.63 777.45 176.09 849.26 259.01 849.26 300.47 777.45 259.01 705.64" style="fill:url(#bq)"/><polygon points="528.27 705.64 445.35 705.64 403.89 777.45 445.35 849.26 528.27 849.26 569.73 777.45 528.27 705.64" style="fill:url(#br)"/><polygon points="797.53 705.64 714.61 705.64 673.15 777.45 714.61 849.26 797.53 849.26 838.99 777.45 797.53 705.64" style="fill:url(#bs)"/><polygon points="1066.79 705.64 983.87 705.64 942.41 777.45 983.87 849.26 1066.79 849.26 1108.25 777.45 1066.79 705.64" style="fill:url(#bt)"/><polygon points="1336.05 705.64 1253.13 705.64 1211.67 777.45 1253.13 849.26 1336.05 849.26 1377.51 777.45 1336.05 705.64" style="fill:url(#bu)"/><polygon points="1605.31 705.64 1522.39 705.64 1480.93 777.45 1522.39 849.26 1605.31 849.26 1646.77 777.45 1605.31 705.64" style="fill:url(#bv)"/><polygon points="1874.57 705.64 1791.65 705.64 1750.18 777.45 1791.65 849.26 1874.57 849.26 1916.03 777.45 1874.57 705.64" style="fill:url(#bw)"/><polygon points="124.38 784.04 41.46 784.04 0 855.86 41.46 927.67 124.38 927.67 165.84 855.86 124.38 784.04" style="fill:url(#bx)"/><polygon points="393.64 784.04 310.72 784.04 269.26 855.86 310.72 927.67 393.64 927.67 435.1 855.86 393.64 784.04" style="fill:url(#by)"/><polygon points="662.9 784.04 579.98 784.04 538.52 855.86 579.98 927.67 662.9 927.67 704.36 855.86 662.9 784.04" style="fill:url(#bz)"/><polygon points="932.16 784.04 849.24 784.04 807.78 855.86 849.24 927.67 932.16 927.67 973.62 855.86 932.16 784.04" style="fill:url(#ca)"/><polygon points="1201.42 784.04 1118.5 784.04 1077.04 855.86 1118.5 927.67 1201.42 927.67 1242.88 855.86 1201.42 784.04" style="fill:url(#cb)"/><polygon points="1470.68 784.04 1387.76 784.04 1346.3 855.86 1387.76 927.67 1470.68 927.67 1512.14 855.86 1470.68 784.04" style="fill:url(#cc)"/><polygon points="1739.94 784.04 1657.02 784.04 1615.56 855.86 1657.02 927.67 1739.94 927.67 1781.4 855.86 1739.94 784.04" style="fill:url(#cd)"/><polygon points="2009.2 784.04 1926.28 784.04 1884.82 855.86 1926.28 927.67 2009.2 927.67 2050.66 855.86 2009.2 784.04" style="fill:url(#ce)"/><polygon points="259.01 862.45 176.09 862.45 134.63 934.26 176.09 1006.07 259.01 1006.07 300.47 934.26 259.01 862.45" style="fill:url(#cf)"/><polygon points="528.27 862.45 445.35 862.45 403.89 934.26 445.35 1006.07 528.27 1006.07 569.73 934.26 528.27 862.45" style="fill:url(#cg)"/><polygon points="797.53 862.45 714.61 862.45 673.15 934.26 714.61 1006.07 797.53 1006.07 838.99 934.26 797.53 862.45" style="fill:url(#ch)"/><polygon points="1066.79 862.45 983.87 862.45 942.41 934.26 983.87 1006.07 1066.79 1006.07 1108.25 934.26 1066.79 862.45" style="fill:url(#ci)"/><polygon points="1336.05 862.45 1253.13 862.45 1211.67 934.26 1253.13 1006.07 1336.05 1006.07 1377.51 934.26 1336.05 862.45" style="fill:url(#cj)"/><polygon points="1605.31 862.45 1522.39 862.45 1480.93 934.26 1522.39 1006.07 1605.31 1006.07 1646.77 934.26 1605.31 862.45" style="fill:url(#ck)"/><polygon points="1874.57 862.45 1791.65 862.45 1750.18 934.26 1791.65 1006.07 1874.57 1006.07 1916.03 934.26 1874.57 862.45" style="fill:url(#cl)"/><polygon points="124.38 940.85 41.46 940.85 0 1012.66 41.46 1084.47 124.38 1084.47 165.84 1012.66 124.38 940.85" style="fill:url(#cm)"/><polygon points="393.64 940.85 310.72 940.85 269.26 1012.66 310.72 1084.47 393.64 1084.47 435.1 1012.66 393.64 940.85" style="fill:url(#cn)"/><polygon points="662.9 940.85 579.98 940.85 538.52 1012.66 579.98 1084.47 662.9 1084.47 704.36 1012.66 662.9 940.85" style="fill:url(#co)"/><polygon points="932.16 940.85 849.24 940.85 807.78 1012.66 849.24 1084.47 932.16 1084.47 973.62 1012.66 932.16 940.85" style="fill:url(#cp)"/><polygon points="1201.42 940.85 1118.5 940.85 1077.04 1012.66 1118.5 1084.47 1201.42 1084.47 1242.88 1012.66 1201.42 940.85" style="fill:url(#cq)"/><polygon points="1470.68 940.85 1387.76 940.85 1346.3 1012.66 1387.76 1084.47 1470.68 1084.47 1512.14 1012.66 1470.68 940.85" style="fill:url(#cr)"/><polygon points="1739.94 940.85 1657.02 940.85 1615.56 1012.66 1657.02 1084.47 1739.94 1084.47 1781.4 1012.66 1739.94 940.85" style="fill:url(#cs)"/><polygon points="2009.2 940.85 1926.28 940.85 1884.82 1012.66 1926.28 1084.47 2009.2 1084.47 2050.66 1012.66 2009.2 940.85" style="fill:url(#ct)"/><polygon points="259.01 1019.26 176.09 1019.26 134.63 1091.07 176.09 1162.88 259.01 1162.88 300.47 1091.07 259.01 1019.26" style="fill:url(#cu)"/><polygon points="528.27 1019.26 445.35 1019.26 403.89 1091.07 445.35 1162.88 528.27 1162.88 569.73 1091.07 528.27 1019.26" style="fill:url(#cv)"/><polygon points="797.53 1019.26 714.61 1019.26 673.15 1091.07 714.61 1162.88 797.53 1162.88 838.99 1091.07 797.53 1019.26" style="fill:url(#cw)"/><polygon points="1066.79 1019.26 983.87 1019.26 942.41 1091.07 983.87 1162.88 1066.79 1162.88 1108.25 1091.07 1066.79 1019.26" style="fill:url(#cx)"/><polygon points="1336.05 1019.26 1253.13 1019.26 1211.67 1091.07 1253.13 1162.88 1336.05 1162.88 1377.51 1091.07 1336.05 1019.26" style="fill:url(#cy)"/><polygon points="1605.31 1019.26 1522.39 1019.26 1480.93 1091.07 1522.39 1162.88 1605.31 1162.88 1646.77 1091.07 1605.31 1019.26" style="fill:url(#cz)"/><polygon points="1874.57 1019.26 1791.65 1019.26 1750.18 1091.07 1791.65 1162.88 1874.57 1162.88 1916.03 1091.07 1874.57 1019.26" style="fill:url(#da)"/><polygon points="124.38 1097.66 41.46 1097.66 0 1169.47 41.46 1241.28 124.38 1241.28 165.84 1169.47 124.38 1097.66" style="fill:url(#db)"/><polygon points="393.64 1097.66 310.72 1097.66 269.26 1169.47 310.72 1241.28 393.64 1241.28 435.1 1169.47 393.64 1097.66" style="fill:url(#dc)"/><polygon points="662.9 1097.66 579.98 1097.66 538.52 1169.47 579.98 1241.28 662.9 1241.28 704.36 1169.47 662.9 1097.66" style="fill:url(#dd)"/><polygon points="932.16 1097.66 849.24 1097.66 807.78 1169.47 849.24 1241.28 932.16 1241.28 973.62 1169.47 932.16 1097.66" style="fill:url(#de)"/><polygon points="1201.42 1097.66 1118.5 1097.66 1077.04 1169.47 1118.5 1241.28 1201.42 1241.28 1242.88 1169.47 1201.42 1097.66" style="fill:url(#df)"/><polygon points="1470.68 1097.66 1387.76 1097.66 1346.3 1169.47 1387.76 1241.28 1470.68 1241.28 1512.14 1169.47 1470.68 1097.66" style="fill:url(#dg)"/><polygon points="1739.94 1097.66 1657.02 1097.66 1615.56 1169.47 1657.02 1241.28 1739.94 1241.28 1781.4 1169.47 1739.94 1097.66" style="fill:url(#dh)"/><polygon points="2009.2 1097.66 1926.28 1097.66 1884.82 1169.47 1926.28 1241.28 2009.2 1241.28 2050.66 1169.47 2009.2 1097.66" style="fill:url(#di)"/></svg>