<svg xmlns="http://www.w3.org/2000/svg" fill="#000000" width="800" height="800" viewBox="0 0 512 512" xmlns:v="https://vecta.io/nano"><path fill="#264de4" d="M483.111.501l-42.59 461.314-184.524 49.684L71.47 461.815 28.889.501h454.222zM397.29 94.302H255.831 111.866l6.885 55.708h137.08 7.7l-7.7 3.205-132.07 55.006 4.38 54.453 127.69.414 68.438.217-4.381 72.606-64.058 18.035v-.057l-.525.146-61.864-15.617-3.754-45.07h-.205H132.1h-.202l7.511 87.007 116.423 34.429v-.062l.21.062 115.799-33.802 15.021-172.761h-131.03-.323l.323-.14 135.83-58.071 5.628-55.708z"/></svg>