<svg width="76" height="76" viewBox="0 0 76 76" fill="none" xmlns="http://www.w3.org/2000/svg">
<g clip-path="url(#clip0_11_27)">
<path d="M38 75.5L9.83013 67.8214L3.90908 0.5H72.0909L66.1698 67.8214L38 75.5ZM16.4689 62.2857L38 68.1786L59.5311 62.2857L64.1962 7.64286H11.8038L16.4689 62.2857Z" fill="#00FFFF"/>
<path d="M20.2727 16.8636H55.7273L52.5364 54.9858L37.8227 59.8182L22.9318 56.0597L21.3364 43.1733H29.3136V49.6165L37.8227 51.2273L45.6227 49.6165V39.9517H21.3364L20.8046 31.8977C21.5331 31.2269 22.4778 30.8454 23.4636 30.8239C35.6955 30.8239 45.6227 31.8977 45.6227 31.8977V25.4546H21.3364L20.2727 16.8636Z" fill="#00FFFF"/>
</g>
<defs>
<clipPath id="clip0_11_27">
<rect width="75" height="75" fill="white" transform="translate(0.5 0.5)"/>
</clipPath>
</defs>
</svg>
