<svg width="76" height="76" viewBox="0 0 76 76" fill="none" xmlns="http://www.w3.org/2000/svg">
<g clip-path="url(#clip0_11_22)">
<path d="M28.8346 38.7348H31.4429H47.1654L46.2122 49.4858L38 51.5747L29.7878 49.4858L29.2196 43.0835H20.8402L21.9954 56.1176L38 60.1873L54.0052 56.1176L56.2231 31.0842H28.1564L27.415 22.7191H56.9649L57.7051 14.3715H18.2951L20.4547 38.7348H28.8346Z" fill="#00FFFF"/>
<path d="M3.48331 0.5L3.62745 2.05669L9.76251 68.3205L38 75.5L66.2374 68.3205L72.5167 0.5H3.48331ZM59.4607 62.5306L38 67.9873L16.5393 62.5306L11.4699 7.78188H64.5299L59.4607 62.5306Z" fill="#00FFFF"/>
</g>
<defs>
<clipPath id="clip0_11_22">
<rect width="75" height="75" fill="white" transform="translate(0.5 0.5)"/>
</clipPath>
</defs>
</svg>
