<svg viewBox="0 0 441.028 263.488" xmlns="http://www.w3.org/2000/svg" xmlns:bx="https://boxy-svg.com">
  <defs>
    <filter id="drop-shadow-filter-0" color-interpolation-filters="sRGB" x="-50%" y="-50%" width="200%" height="200%" bx:preset="drop-shadow 1 0 0 10 0.5 rgba(0,144,0,1)">
      <feGaussianBlur in="SourceAlpha" stdDeviation="10"></feGaussianBlur>
      <feOffset dx="0" dy="0"></feOffset>
      <feComponentTransfer result="offsetblur">
        <feFuncA id="spread-ctrl" type="linear" slope="1"></feFuncA>
      </feComponentTransfer>
      <feFlood flood-color="rgba(0,144,0,1)"></feFlood>
      <feComposite in2="offsetblur" operator="in"></feComposite>
      <feMerge>
        <feMergeNode></feMergeNode>
        <feMergeNode in="SourceGraphic"></feMergeNode>
      </feMerge>
    </filter>
  </defs>
  <path d="M 31.942 181.776 L 18.739 16.742 L 177.172 16.742 L 163.969 181.776 L 97.955 201.58 L 31.942 181.776 Z" style="fill: rgb(0, 144, 0);"></path>
  <path d="M 163.969 29.945 L 97.955 29.945 L 97.955 191.678 L 150.767 175.175 L 163.969 29.945 Z" style="fill: rgba(0, 255, 0, 0.7);"></path>
  <path d="M 121.06 112.461 L 55.046 112.461 L 51.746 89.357 L 104.557 72.854 L 51.746 72.854 L 48.446 53.049 L 150.767 53.049 L 147.465 76.154 L 104.557 92.658 L 144.165 92.658 L 137.563 155.37 L 97.955 168.573 L 58.347 155.37 L 55.046 122.364 L 74.851 122.364 L 78.151 138.868 L 97.955 145.468 L 117.76 138.868 L 121.06 112.461 Z" fill="white" style=""></path>
  <path d="M 421.156 19.448 L 406.945 178.646 L 343.067 196.355 L 279.364 178.671 L 265.168 19.448 L 421.156 19.448 Z" style="fill: rgb(0, 144, 0);"></path>
  <path d="M 343.162 182.819 L 394.779 168.509 L 406.923 32.466 L 343.162 32.466 L 343.162 182.819 Z" style="fill: rgba(0, 255, 0, 0.55);"></path>
  <path d="M 315.537 71.523 L 343.162 71.523 L 343.162 51.995 L 294.195 51.995 L 294.662 57.234 L 299.462 111.048 L 343.162 111.048 L 343.162 91.52 L 317.321 91.52 L 315.537 71.523 Z M 319.938 120.812 L 300.335 120.812 L 303.07 151.474 L 343.072 162.578 L 343.162 162.554 L 343.162 142.236 L 343.077 142.259 L 321.328 136.387 L 319.938 120.812 Z" fill="#EBEBEB" style=""></path>
  <rect x="120.881" y="62.536" width="179.192" height="179.192" style="fill: rgb(0, 144, 0); filter: url(#drop-shadow-filter-0);"></rect>
  <path d="M 241.254 202.531 C 244.37 208.86 250.841 212.84 257.893 212.77 C 264.869 212.77 269.329 209.282 269.329 204.451 C 269.329 198.69 264.747 196.63 257.067 193.27 L 252.857 191.465 C 240.698 186.288 232.633 179.805 232.633 166.096 C 232.633 153.47 242.233 143.852 257.292 143.852 C 267.256 143.128 276.689 148.439 281.239 157.336 L 268.075 165.751 C 266.322 161.335 262.021 158.462 257.266 158.532 C 252.984 158.103 249.254 161.444 249.209 165.751 C 249.209 170.801 252.338 172.848 259.564 175.99 L 263.774 177.796 C 278.084 183.933 286.174 190.185 286.174 204.245 C 286.174 219.406 274.263 227.713 258.271 227.713 C 245.542 228.519 233.523 221.78 227.583 210.491 L 241.254 202.531 Z M 181.769 203.99 C 184.411 208.68 186.818 212.648 192.603 212.648 C 198.133 212.648 201.627 210.485 201.627 202.07 L 201.627 144.812 L 218.465 144.812 L 218.465 202.293 C 218.465 219.727 208.225 227.662 193.32 227.662 C 182.536 228.251 172.501 222.145 168.06 212.302 L 181.769 203.99 Z" style="fill: rgb(255, 255, 255);"></path>
  <path d="M 343.095 111.048 L 367.142 111.048 L 364.874 136.374 L 343.094 142.253 L 343.094 162.569 L 383.128 151.474 L 383.422 148.175 L 388.011 96.764 L 388.487 91.52 L 343.095 91.52 L 343.095 111.048 Z M 343.095 71.475 L 343.095 71.523 L 390.264 71.523 L 390.656 67.134 L 391.546 57.234 L 392.013 51.995 L 343.095 51.995 L 343.095 71.476 L 343.095 71.475 Z" fill="#FFF" style=""></path>
  <title>file_type_js_official</title>
</svg>