<svg width="76" height="76" viewBox="0 0 76 76" fill="none" xmlns="http://www.w3.org/2000/svg">
<g clip-path="url(#clip0_11_39)">
<path d="M73.6193 53.9126C73.6193 53.9126 64.3096 79.018 32.2588 73.1735C31.7545 73.0796 31.2708 72.9043 30.781 72.7562C30.6664 72.7227 30.5507 72.686 30.4361 72.6532C29.9549 72.5035 29.4786 72.35 29.0051 72.1849C28.9509 72.166 28.8992 72.1483 28.8443 72.1288C28.413 71.9772 27.9841 71.8162 27.5608 71.6536C27.4499 71.6104 27.3396 71.5684 27.2293 71.5232C26.7731 71.3431 26.3193 71.1547 25.8704 70.958C25.7876 70.9215 25.7078 70.8849 25.6237 70.8478C25.2307 70.673 24.8426 70.492 24.4578 70.308C24.3579 70.2573 24.2574 70.2104 24.1568 70.163C24.102 70.1356 24.043 70.1082 23.9869 70.0802C23.7384 69.956 23.4958 69.8269 23.2511 69.6988C23.0623 69.6014 22.8704 69.5064 22.6827 69.4058C22.3361 69.217 21.9944 69.0251 21.6544 68.8289C21.5283 68.757 21.401 68.6876 21.276 68.6151C20.8143 68.3435 20.3574 68.0614 19.9073 67.7762C19.78 67.6946 19.654 67.6081 19.5285 67.5239C19.2349 67.3339 18.9412 67.1438 18.6537 66.9453C18.6232 66.9245 18.594 66.9027 18.5642 66.8813C18.4527 66.8057 18.3468 66.7284 18.2359 66.6479C17.9325 66.4372 17.6322 66.2215 17.335 66.0022C17.1913 65.8938 17.048 65.7849 16.9055 65.6757C16.6363 65.4704 16.3684 65.2601 16.1026 65.0482C15.9705 64.9423 15.8365 64.8375 15.7043 64.7303C15.3803 64.4634 15.0573 64.1917 14.7412 63.9176C14.6814 63.8653 14.6182 63.8141 14.5572 63.7593C14.5511 63.7568 14.5468 63.7519 14.5401 63.7464C14.1813 63.432 13.8292 63.1098 13.4801 62.7809C13.3748 62.6847 13.2699 62.5817 13.164 62.4806C12.9033 62.2301 12.645 61.9779 12.391 61.7221C12.2855 61.6185 12.1814 61.5138 12.0803 61.4089C11.7521 61.0714 11.4279 60.7335 11.1112 60.3879C11.0996 60.3723 11.088 60.363 11.0741 60.3478C11.0686 60.3418 11.0606 60.3337 11.0552 60.327C10.7312 59.97 10.4132 59.6051 10.1019 59.2391C10.0147 59.1361 9.92715 59.0308 9.84116 58.9266C9.60913 58.647 9.38061 58.3681 9.15649 58.0853C9.06333 57.9677 8.97016 57.8491 8.87817 57.7309C8.62666 57.4061 8.37807 57.079 8.1374 56.7463C8.09228 56.6842 8.04424 56.6233 8.00088 56.5623C7.99165 56.5521 7.98389 56.541 7.97773 56.5307C7.69883 56.145 7.42959 55.7521 7.16518 55.3587C7.08301 55.238 7.00566 55.1138 6.92641 54.9894C6.73511 54.6983 6.54746 54.407 6.36597 54.1123C6.27104 53.9612 6.18081 53.8096 6.0894 53.6577C5.92432 53.3825 5.76289 53.1071 5.6063 52.8293C5.5168 52.6722 5.42847 52.5186 5.34189 52.3572C5.2937 52.272 5.24141 52.1841 5.19453 52.0947C5.11221 51.9459 5.03794 51.7908 4.95752 51.639C4.8333 51.4008 4.70718 51.1615 4.58721 50.919C-0.474854 40.7978 -1.30088 28.4053 5.32666 18.8795L10.4996 12.3186C4.66323 23.599 7.28633 37.335 14.5877 47.2933C14.8514 47.6558 15.1213 48.0134 15.3972 48.3708C15.4826 48.4786 15.5683 48.5872 15.6537 48.6907C15.8832 48.9831 16.1177 49.2718 16.3547 49.5576C16.4401 49.6581 16.5235 49.7567 16.6106 49.8602C16.9275 50.2344 17.2515 50.6059 17.5842 50.9683C17.6 50.9858 17.6152 51.0018 17.6305 51.0188C17.9448 51.3619 18.2652 51.7004 18.5911 52.0344C18.6922 52.1366 18.7952 52.2378 18.8981 52.3402C19.1541 52.6014 19.4154 52.855 19.681 53.1071C19.7814 53.207 19.8825 53.3032 19.9868 53.4025C20.3456 53.7364 20.7074 54.0683 21.0759 54.3925C21.1143 54.426 21.1539 54.4569 21.1892 54.488C21.5303 54.7846 21.8757 55.0735 22.2254 55.361C22.3473 55.4603 22.4715 55.5595 22.5957 55.6582C22.8704 55.8793 23.1482 56.0945 23.4279 56.3082C23.5613 56.4106 23.6983 56.5147 23.8367 56.617C24.1407 56.8424 24.4477 57.0642 24.7578 57.2835C24.8631 57.3547 24.9655 57.4322 25.0722 57.5039C25.3927 57.7257 25.7192 57.9413 26.0469 58.1521C26.1699 58.2339 26.2918 58.3191 26.416 58.3984C26.8681 58.6846 27.3249 58.966 27.7867 59.2377C27.9055 59.306 28.0243 59.3699 28.1412 59.4358C28.4896 59.6373 28.8387 59.8358 29.1944 60.026C29.3869 60.1331 29.5849 60.23 29.7797 60.333C30.0709 60.4829 30.3622 60.6352 30.6569 60.7789C30.7684 60.8337 30.8768 60.885 30.9859 60.9367C31.3618 61.1176 31.7388 61.2919 32.1201 61.4647C32.2104 61.5039 32.2979 61.5446 32.3888 61.5835C32.8329 61.7779 33.2817 61.9644 33.7344 62.1427C33.8507 62.189 33.9671 62.2335 34.084 62.2799C34.4958 62.4394 34.9106 62.5943 35.3303 62.7422C35.3955 62.7654 35.4607 62.7891 35.524 62.8122C35.9918 62.9732 36.4626 63.1266 36.9373 63.2716C37.0584 63.3094 37.1797 63.346 37.3039 63.3825C37.7899 63.5262 38.273 63.6816 38.7714 63.7944C51.9217 66.7872 65.8002 64.0996 73.6193 53.9126ZM27.2246 37.8181C27.9434 38.847 28.739 40.0719 29.6923 40.8988C30.0371 41.2793 30.3989 41.6502 30.7675 42.0151C30.8601 42.1101 30.9557 42.2015 31.0514 42.2946C31.4083 42.6419 31.7738 42.9837 32.1491 43.3156C32.1649 43.3272 32.179 43.3432 32.1942 43.3541C32.1985 43.359 32.2021 43.3601 32.2052 43.365C32.622 43.7293 33.0521 44.0809 33.4881 44.4261C33.5851 44.5005 33.6812 44.5779 33.7793 44.6535C34.2173 44.9891 34.664 45.3192 35.122 45.6334C35.1361 45.6431 35.1469 45.6531 35.161 45.6627C35.3625 45.8028 35.5685 45.9331 35.7726 46.0672C35.8713 46.1306 35.9645 46.1987 36.063 46.2585C36.3907 46.4687 36.7216 46.6727 37.0584 46.8689C37.106 46.8982 37.1523 46.9225 37.1992 46.9499C37.4885 47.1169 37.7839 47.282 38.0788 47.4415C38.1811 47.4988 38.2859 47.5499 38.3907 47.6047C38.5941 47.7107 38.7988 47.8197 39.0059 47.9227C39.037 47.9373 39.0693 47.9518 39.0992 47.9647C39.5214 48.1725 39.9471 48.3734 40.3827 48.5623C40.4753 48.6037 40.5715 48.6402 40.666 48.6793C41.0139 48.8267 41.3647 48.9711 41.7175 49.1063C41.8672 49.163 42.0191 49.2172 42.1676 49.2714C42.4886 49.3908 42.8097 49.4993 43.1337 49.6077C43.2806 49.6544 43.4243 49.7026 43.5711 49.7477C44.0316 49.8903 44.4872 50.0718 44.9678 50.151C69.714 54.2513 75.4268 35.1982 75.4268 35.1982C70.2764 42.6151 60.3033 46.1539 49.6606 43.3919C49.1885 43.2676 48.7227 43.1318 48.2602 42.9862C48.1175 42.9434 47.9787 42.8973 47.8379 42.8502C47.509 42.7436 47.1818 42.6304 46.8573 42.5122C46.7092 42.458 46.5607 42.4038 46.4149 42.3476C46.0597 42.2111 45.7083 42.0699 45.3605 41.9226C45.2649 41.8811 45.1692 41.8445 45.0761 41.8018C44.6394 41.6116 44.2093 41.4118 43.7853 41.2021C43.5666 41.0954 43.3527 40.9826 43.1371 40.872C43.0127 40.8079 42.8879 40.7438 42.7637 40.6798C42.4883 40.5302 42.2142 40.3751 41.9442 40.2178C41.8802 40.1809 41.8133 40.1458 41.7481 40.1072C41.4137 39.911 41.0835 39.709 40.7564 39.5016C40.6558 39.4374 40.5583 39.3676 40.4579 39.3015C40.2415 39.1618 40.0266 39.0201 39.8145 38.8764C39.3589 38.5621 38.9154 38.232 38.4774 37.8982C38.3763 37.8186 38.2758 37.741 38.1758 37.6615C33.5182 33.9831 29.8262 28.9569 28.0692 23.2577C26.2301 17.3467 26.6268 10.7117 29.8145 5.32709L25.8982 10.8551C21.106 17.7523 21.3661 26.985 25.1044 34.2794C25.7322 35.5024 26.437 36.6884 27.2246 37.8181ZM53.3076 29.2851C53.5117 29.3612 53.7151 29.4288 53.9215 29.4986C54.0118 29.5263 54.1019 29.5574 54.1927 29.5842C54.4839 29.6759 54.7732 29.7822 55.0742 29.8388C68.7389 32.4789 72.4443 22.8267 73.4312 21.4062C70.1844 26.0806 64.7293 27.2026 58.0341 25.5783C57.506 25.4492 56.9249 25.2582 56.4143 25.0779C55.7606 24.8448 55.118 24.5792 54.4918 24.2787C53.3022 23.7075 52.1703 23.0146 51.119 22.2213C45.1291 17.676 41.4084 9.00532 45.3167 1.94418L43.2017 4.85937C40.3764 9.01747 40.0993 14.1813 42.0589 18.7741C44.1264 23.6482 48.363 27.4725 53.3076 29.2851Z" fill="#00FFFF"/>
</g>
<defs>
<clipPath id="clip0_11_39">
<rect width="75" height="75" fill="white" transform="translate(0.5 0.5)"/>
</clipPath>
</defs>
</svg>
