<svg xmlns="http://www.w3.org/2000/svg" fill="#000000" width="800" height="800" viewBox="0 0 512 512" xmlns:v="https://vecta.io/nano"><path d="M499.161 364.63s-63.554 171.386-282.354 131.488c-3.443-.641-6.745-1.838-10.089-2.849l-2.354-.703-9.769-3.197-1.098-.383c-2.944-1.035-5.872-2.134-8.762-3.244l-2.263-.89c-3.114-1.23-6.212-2.516-9.277-3.859l-1.684-.752-7.959-3.685c-.682-.346-1.368-.666-2.055-.99l-1.16-.565c-1.696-.848-3.352-1.729-5.023-2.604l-3.88-2-7.02-3.938-2.583-1.46c-3.152-1.854-6.271-3.78-9.344-5.727-.869-.557-1.729-1.147-2.586-1.722l-5.972-3.95c-.208-.142-.407-.291-.611-.437-.761-.516-1.484-1.044-2.241-1.593l-6.15-4.408-2.932-2.229-5.481-4.284-2.719-2.17-6.575-5.548-1.256-1.081c-.042-.017-.071-.05-.117-.088a271.49 271.49 0 0 1-7.236-6.591c-.719-.657-1.435-1.36-2.158-2.05l-5.277-5.178-2.121-2.138-6.616-6.97c-.079-.107-.158-.17-.253-.274-.038-.041-.092-.096-.129-.142a305.82 305.82 0 0 1-6.508-7.427l-1.78-2.133-4.674-5.743-1.9-2.42-5.057-6.721-.932-1.256a1.41 1.41 0 0 1-.158-.216c-1.904-2.633-3.742-5.315-5.547-8.001-.561-.824-1.089-1.672-1.63-2.521l-3.826-5.988c-.648-1.031-1.264-2.066-1.888-3.103l-3.298-5.655-1.805-3.223c-.329-.582-.686-1.182-1.006-1.792-.562-1.016-1.069-2.075-1.618-3.111l-2.528-4.915C-6.655 275.1-12.294 190.5 32.95 125.471l35.314-44.789c-39.843 77.007-21.936 170.778 27.908 238.76l5.526 7.356 1.751 2.184 4.786 5.918 1.747 2.066c2.163 2.554 4.375 5.09 6.646 7.564l.316.345c2.146 2.342 4.333 4.653 6.558 6.933l2.096 2.088a206.2 206.2 0 0 0 5.344 5.235l2.088 2.017 7.435 6.758c.262.229.532.44.773.652 2.329 2.025 4.687 3.997 7.074 5.96l2.528 2.029c1.875 1.509 3.772 2.978 5.681 4.437l2.791 2.108 6.288 4.55c.719.486 1.418 1.015 2.146 1.505 2.188 1.514 4.417 2.986 6.654 4.425l2.52 1.681 9.357 5.73 2.42 1.352 7.19 4.029c1.314.731 2.666 1.393 3.996 2.096l5.988 3.044 2.246 1.077 7.743 3.605 1.834.811c3.032 1.327 6.096 2.6 9.186 3.817l2.387.937c2.811 1.089 5.643 2.146 8.508 3.156l1.322.478c3.194 1.099 6.408 2.146 9.648 3.136l2.503.757c3.318.981 6.616 2.042 10.018 2.812 89.773 20.431 184.517 2.083 237.895-67.46zM182.44 254.758c4.907 7.024 10.338 15.386 16.846 21.031 2.354 2.598 4.824 5.13 7.34 7.621.632.648 1.285 1.272 1.938 1.908 2.437 2.371 4.932 4.704 7.494 6.97.108.079.204.188.308.263.029.033.054.041.075.074 2.845 2.487 5.781 4.887 8.758 7.244l1.988 1.552c2.99 2.291 6.039 4.545 9.166 6.69.096.066.17.134.266.2 1.376.956 2.782 1.846 4.175 2.761.674.433 1.31.898 1.983 1.306 2.237 1.435 4.496 2.828 6.795 4.167.325.2.641.366.961.553l6.005 3.356c.698.391 1.414.74 2.129 1.114l4.2 2.171c.212.1.433.199.637.287 2.882 1.418 5.788 2.79 8.762 4.079.632.283 1.289.532 1.934.799 2.375 1.006 4.77 1.992 7.178 2.915l3.073 1.127c2.191.815 4.383 1.556 6.595 2.296l2.986.956c3.144.973 6.254 2.212 9.535 2.753C472.501 366.942 511.5 236.873 511.5 236.873c-35.16 50.633-103.243 74.791-175.897 55.936-3.223-.849-6.403-1.776-9.56-2.77-.974-.292-1.922-.607-2.883-.928-2.245-.728-4.479-1.501-6.694-2.308l-3.02-1.123c-2.425-.932-4.824-1.896-7.198-2.902l-1.942-.824c-2.981-1.299-5.917-2.663-8.812-4.094-1.493-.729-2.953-1.499-4.425-2.254l-2.549-1.312c-1.88-1.021-3.751-2.08-5.594-3.154l-1.339-.755a228.56 228.56 0 0 1-6.77-4.134c-.687-.438-1.352-.915-2.038-1.366l-4.392-2.902c-3.11-2.146-6.138-4.399-9.128-6.678l-2.059-1.616c-31.796-25.111-57-59.423-68.994-98.33-12.555-40.352-9.847-85.647 11.914-122.406l-26.735 37.738c-32.715 47.085-30.939 110.113-5.419 159.91 4.286 8.349 9.097 16.445 14.474 24.157zm178.06-58.252c1.393.52 2.782.981 4.191 1.458l1.851.584c1.988.626 3.963 1.352 6.018 1.738 93.284 18.023 118.58-47.869 125.317-57.566-22.165 31.91-59.405 39.57-105.111 28.481-3.605-.881-7.572-2.185-11.058-3.416a135.45 135.45 0 0 1-13.124-5.456c-8.121-3.899-15.848-8.629-23.025-14.045-40.891-31.029-66.291-90.221-39.61-138.425L291.51 29.76c-19.287 28.386-21.179 63.638-7.801 94.991 14.114 33.274 43.036 59.381 76.791 71.755z"/></svg>