<svg width="76" height="76" viewBox="0 0 76 76" fill="none" xmlns="http://www.w3.org/2000/svg">
<g clip-path="url(#clip0_11_35)">
<path fill-rule="evenodd" clip-rule="evenodd" d="M0.647655 0.573242C0.564159 0.5854 0.570311 0.686035 0.576317 0.786816C0.576317 25.6405 0.576317 50.4904 0.576317 75.3436C25.3855 75.5098 50.4994 75.3673 75.4268 75.4147C75.4268 50.4671 75.4268 25.5207 75.4268 0.573242C50.5013 0.573242 25.5733 0.573242 0.647655 0.573242ZM38.5703 66.7354C36.8385 68.4813 34.1057 69.5095 30.7437 69.5095C25.2296 69.5095 22.1681 66.823 20.2139 63.1065C22.095 61.9054 24.0175 60.7449 25.9771 59.6209C26.7764 61.8566 29.4761 64.37 32.5225 62.8227C34.4536 61.8414 34.2307 58.8661 34.2307 55.637C34.2307 48.932 34.2307 41.1969 34.2307 35.1479C34.2245 35.0472 34.2185 34.9465 34.3013 34.9344C36.6021 34.9344 38.9028 34.9344 41.203 34.9344C41.203 40.3232 41.203 46.419 41.203 52.1505C41.203 58.3905 41.6489 63.633 38.5703 66.7354ZM69.4496 60.5464C69.0579 66.3888 64.2871 69.4912 57.8524 69.5095C51.5445 69.5277 47.5071 66.7244 45.0449 62.3952C46.8151 61.1769 48.8209 60.1955 50.6662 59.0521C52.1428 61.3609 54.6999 63.58 58.4927 63.2492C60.8557 63.0433 63.5986 61.1171 62.0501 58.1981C61.2991 56.7831 59.4843 56.0643 57.8524 55.3527C52.6739 53.0933 46.5983 51.021 47.1794 42.9027C47.3738 40.1907 48.6226 38.2848 50.2394 36.9267C51.8962 35.5351 54.1153 34.6024 57.0698 34.5081C62.4354 34.3363 65.3788 36.7229 67.3865 40.0575C65.6779 41.3599 63.7956 42.4903 61.9079 43.6143C61.2884 41.7107 58.2979 39.8558 55.7889 40.9821C54.6479 41.4938 53.6227 42.9979 54.2239 44.8235C54.76 46.4517 56.9469 47.3429 58.7061 48.0966C64.0312 50.3759 69.9821 52.6035 69.4496 60.5464Z" fill="#00FFFF"/>
</g>
<defs>
<clipPath id="clip0_11_35">
<rect width="75" height="75" fill="white" transform="translate(0.5 0.5)"/>
</clipPath>
</defs>
</svg>
