<svg width="76" height="76" viewBox="0 0 76 76" fill="none" xmlns="http://www.w3.org/2000/svg">
<path d="M60.6553 26.9727C59.9062 26.7168 59.1518 26.4785 58.3921 26.2578C58.5181 25.7451 58.6343 25.2295 58.7407 24.7109C60.4546 16.376 59.334 9.66113 55.5093 7.45068C51.8472 5.32959 45.8413 7.54004 39.7827 12.8252C39.187 13.3467 38.6035 13.8838 38.0322 14.4365C37.6514 14.0693 37.2607 13.71 36.8603 13.3584C30.5103 7.70703 24.1455 5.32666 20.3252 7.54443C16.6631 9.66992 15.5747 15.9819 17.1172 23.8818C17.2715 24.6631 17.4448 25.4409 17.6372 26.2153C16.7363 26.4717 15.8662 26.7456 15.0342 27.0356C7.59863 29.6357 2.84375 33.7124 2.84375 37.9399C2.84375 42.3081 7.94726 46.688 15.7007 49.3438C16.3296 49.5576 16.9644 49.7564 17.605 49.9399C17.397 50.769 17.2129 51.6074 17.0527 52.4551C15.5879 60.2188 16.7305 66.3814 20.3853 68.4937C24.1602 70.6748 30.4927 68.4336 36.6655 63.0283C37.1538 62.6006 37.6421 62.1489 38.1304 61.6733C38.7476 62.27 39.3823 62.8491 40.0347 63.4106C46.0112 68.564 51.9131 70.6455 55.562 68.5273C59.334 66.3389 60.5601 59.7178 58.9678 51.6626C58.8457 51.0474 58.7051 50.4194 58.5459 49.7788C58.9912 49.647 59.4272 49.5107 59.854 49.3701C67.9106 46.6938 73.1592 42.3667 73.1592 37.9443C73.1562 33.6963 68.249 29.5933 60.6553 26.9727ZM41.7588 15.0957C46.9487 10.5679 51.8003 8.78076 54.0122 10.0581C56.3662 11.4189 57.2817 16.9063 55.8022 24.103C55.7046 24.5718 55.5991 25.0391 55.4858 25.5049C52.3886 24.8004 49.2479 24.3032 46.0845 24.0166C44.2732 21.4075 42.2878 18.9238 40.1416 16.5825C40.667 16.0728 41.2051 15.5771 41.7559 15.0957H41.7588ZM23.605 41.5522C24.2407 42.7827 24.9053 43.9981 25.5986 45.1982C26.3047 46.4229 27.0405 47.6294 27.8062 48.8179C25.6295 48.5812 23.4665 48.2326 21.3257 47.7734C21.9468 45.7637 22.7114 43.6763 23.605 41.5522ZM23.605 34.4727C22.7261 32.394 21.9819 30.3491 21.3711 28.3745C23.3779 27.9248 25.5166 27.5571 27.7461 27.2788C26.999 28.4448 26.2803 29.6279 25.5898 30.8281C24.8994 32.0283 24.2363 33.2432 23.6006 34.4727H23.605ZM25.2017 38.0132C26.1274 36.0825 27.1245 34.189 28.1929 32.3325C29.2603 30.4771 30.3965 28.6641 31.6016 26.8936C33.6934 26.7354 35.8379 26.6519 38.0044 26.6519C40.1709 26.6519 42.3286 26.7354 44.4189 26.895C45.6113 28.6616 46.7407 30.4683 47.8071 32.3149C48.8735 34.1616 49.8838 36.0464 50.8379 37.9692C49.8965 39.9067 48.8887 41.8081 47.8144 43.6733C46.749 45.5288 45.626 47.3472 44.4453 49.1284C42.3579 49.2749 40.1973 49.3555 38 49.3555C35.8027 49.3555 33.6831 49.2866 31.6338 49.1533C30.4199 47.377 29.2744 45.5562 28.1973 43.6909C27.1201 41.8257 26.1201 39.9331 25.1973 38.0132H25.2017ZM50.4145 45.1777C51.1226 43.9492 51.8022 42.7046 52.4536 41.4438C53.3465 43.4684 54.1347 45.5375 54.8149 47.6431C52.649 48.1308 50.459 48.5048 48.2539 48.7637C48.998 47.583 49.7183 46.3877 50.4145 45.1777ZM52.4243 34.4741C51.7759 33.2388 51.1016 32.0181 50.4014 30.812C49.7178 29.6226 49.0054 28.4478 48.2642 27.2876C50.5068 27.5718 52.6587 27.9497 54.6758 28.4111C54.0272 30.4685 53.2758 32.4921 52.4243 34.4741ZM38.0337 18.7344C39.4964 20.3327 40.8776 22.0037 42.1719 23.7412C39.4033 23.6094 36.6328 23.6094 33.8603 23.7412C35.227 21.9336 36.626 20.2563 38.0337 18.7344ZM21.8369 10.1475C24.1895 8.78223 29.3911 10.7334 34.874 15.6069C35.2241 15.9189 35.5771 16.2456 35.9287 16.584C33.7715 18.925 31.772 21.4065 29.9434 24.0122C26.787 24.2966 23.6524 24.7859 20.5596 25.477C20.3809 24.7583 20.2197 24.0347 20.0762 23.3062C18.7505 16.5342 19.6279 11.4292 21.8369 10.1475ZM18.4077 47.0396C17.8218 46.8726 17.2432 46.6914 16.6719 46.4961C13.2441 45.3242 10.4126 43.7949 8.46875 42.1294C6.72852 40.6367 5.84668 39.147 5.84668 37.9399C5.84668 35.375 9.66406 32.1025 16.0303 29.8833C16.8301 29.605 17.6367 29.3506 18.4502 29.1201C19.3957 32.1586 20.5407 35.1314 21.8779 38.019C20.5248 40.9466 19.3656 43.9599 18.4077 47.0396ZM34.6865 60.7607C31.9575 63.1514 29.2241 64.8462 26.8145 65.7002C24.6494 66.4663 22.9253 66.4883 21.8838 65.8862C19.666 64.6045 18.7432 59.6548 20.0015 53.0161C20.1509 52.2349 20.3218 51.4536 20.5142 50.6724C23.638 51.3453 26.804 51.8048 29.9902 52.0479C31.8367 54.6671 33.8528 57.1627 36.0254 59.5186C35.5889 59.9478 35.1421 60.3608 34.6865 60.7607ZM38.1172 57.3594C36.6934 55.8198 35.2725 54.1162 33.8867 52.2852C35.2334 52.3379 36.6045 52.3643 38 52.3643C39.4326 52.3643 40.8506 52.3335 42.248 52.2705C40.9584 54.0359 39.5797 55.7344 38.1172 57.3594ZM56.3574 61.5474C55.9385 63.8091 55.0962 65.3179 54.0547 65.9214C51.8384 67.2075 47.0996 65.5361 41.9902 61.1284C41.4043 60.6245 40.8184 60.084 40.2222 59.5171C42.3525 57.1521 44.3213 54.6464 46.1152 52.0171C49.3191 51.7456 52.5005 51.2538 55.6367 50.5449C55.7803 51.125 55.9072 51.6934 56.0176 52.25C56.7222 55.8096 56.8232 59.0293 56.3574 61.5474ZM58.9062 46.5122C58.5225 46.6396 58.1269 46.7627 57.7256 46.8828C56.7422 43.83 55.5524 40.8475 54.1645 37.9561C55.5004 35.1031 56.6435 32.1639 57.5864 29.1582C58.3057 29.3677 59.0044 29.5874 59.6768 29.8203C66.1836 32.0645 70.1533 35.3867 70.1533 37.9399C70.1533 40.6646 65.8657 44.2007 58.9062 46.5122Z" fill="#00FFFF"/>
<path d="M38 44.2329C39.2467 44.237 40.4665 43.871 41.505 43.1813C42.5435 42.4917 43.3541 41.5094 43.834 40.3588C44.3139 39.2082 44.4415 37.9411 44.2008 36.7179C43.9601 35.4947 43.3618 34.3704 42.4817 33.4874C41.6016 32.6045 40.4793 32.0025 39.2569 31.7578C38.0345 31.5131 36.767 31.6367 35.6148 32.1128C34.4627 32.5889 33.4777 33.3962 32.7847 34.4325C32.0916 35.4688 31.7217 36.6874 31.7217 37.9341C31.7199 38.76 31.881 39.5782 32.1957 40.3419C32.5103 41.1055 32.9724 41.7997 33.5554 42.3846C34.1385 42.9696 34.8312 43.4339 35.5938 43.7511C36.3564 44.0682 37.1741 44.2319 38 44.2329Z" fill="#00FFFF"/>
</svg>
