<svg width="76" height="76" viewBox="0 0 76 76" fill="none" xmlns="http://www.w3.org/2000/svg">
<path d="M38.4008 44.3281C37.2734 44.8461 36.0383 45.5211 33.5656 46.8781C32.6281 47.4055 31.6484 47.9328 30.7367 48.4297C30.6734 48.3664 30.6078 48.2867 30.5445 48.2211C25.6531 42.9945 16.6062 39.3031 16.9906 32.2836C17.1336 29.7266 18.0125 23.0141 34.3648 14.8625C47.8227 8.22969 58.5312 10.0672 60.3805 14.143C63.0383 19.9531 54.6406 30.7648 40.7422 32.3328C39.204 32.6448 37.6153 32.6071 36.0936 32.2226C34.5719 31.838 33.1561 31.1163 31.9508 30.1109C31.2148 29.3117 31.1047 29.2648 30.8328 29.4242C30.3852 29.6586 30.6734 30.3828 30.8328 30.7977C31.363 31.7575 32.0802 32.6014 32.9421 33.2793C33.804 33.9572 34.793 34.4554 35.8508 34.7445C41.3202 35.9267 47.0227 35.3619 52.1539 33.1297C60.5773 29.8695 67.1539 20.8063 65.2273 13.2078C63.2937 5.50391 50.5062 2.96328 38.4078 7.26172C30.8311 9.81499 23.8309 13.8343 17.8062 19.0906C11.1406 25.325 10.0859 30.7438 10.5172 33.0125C12.0687 41.068 23.1734 46.3109 27.6266 50.1945C27.3922 50.3234 27.1953 50.4289 27.0195 50.5297C24.7977 51.6336 16.3273 56.0609 14.2156 60.7438C11.818 66.05 14.6 69.8539 16.4375 70.3648C19.2066 71.0281 22.1137 70.8101 24.7529 69.7411C27.3921 68.6722 29.6316 66.8057 31.1586 64.4023C32.4553 62.4094 33.2516 60.1328 33.4797 57.766C33.7078 55.3993 33.361 53.0125 32.4687 50.8086C32.9952 50.3887 33.5566 50.0147 34.1469 49.6906C35.2812 49.0203 36.3617 48.3594 37.3203 47.8484C40.6024 46.3111 44.1843 45.5195 47.8086 45.5305C55.4164 46.4258 56.9187 51.1719 56.6305 53.1711C56.4956 53.8804 56.2104 54.5526 55.794 55.1424C55.3776 55.7323 54.8396 56.2261 54.2164 56.5906C53.6891 56.9258 53.5133 57.0383 53.5602 57.2773C53.6234 57.6289 53.8789 57.6125 54.3266 57.5492C55.4696 57.188 56.4766 56.4894 57.2153 55.5453C57.954 54.6012 58.3899 53.4557 58.4656 52.2594C58.7 47.5719 54.2305 42.4297 46.318 42.4766C43.9487 42.4806 41.6031 42.948 39.4133 43.8523C39.0617 43.9977 38.7203 44.1539 38.3891 44.3211L38.4008 44.3281ZM27.0922 62.7008C24.5656 65.45 21.05 66.4883 19.5312 65.6094C17.8906 64.6719 18.5398 60.6055 21.6406 57.6969C23.4771 56.0422 25.462 54.5602 27.5703 53.2695C27.9383 53.0352 28.482 52.7258 29.1359 52.332C29.2484 52.2688 29.3117 52.2359 29.3117 52.2359L29.6961 52.0016C30.2491 53.8557 30.2994 55.8235 29.8419 57.7035C29.3844 59.5835 28.4354 61.3081 27.0922 62.7008Z" fill="#00FFFF"/>
</svg>
